<?xml version="1.0" encoding="UTF-8" standalone="no"?>
<svg
   id="svg2"
   height="1200"
   viewBox="0 0 1200 1200"
   width="1200"
   version="1.1"
   xmlns="http://www.w3.org/2000/svg"
   xmlns:svg="http://www.w3.org/2000/svg">
  <defs
     id="defs1" />
  <g
     id="g1">
    <path
       d="m 600.63047,198.8002 c 222.07287,0 401.21043,179.13738 401.21043,401.21025 0,222.07286 -179.13756,401.21105 -401.21043,401.21105 -222.07287,0 -401.5834,-176.33948 -401.5834,-398.41235 0,-222.07287 179.51053,-404.00895 401.5834,-404.00895 z"
       style="fill:#ffffff;stroke-width:100.256"
       id="path1" />
    <path
       id="path1-1"
       d="m 599.88703,100.19229 c -275.55,0 -499.81389,224.2639 -499.81389,499.8139 0,275.55 224.26389,499.81391 499.81389,499.81391 275.55,0 499.81387,-224.45002 499.81387,-500.00002 0,-275.55 -224.26387,-499.62779 -499.81387,-499.62779 z m 0,99.62779 c 221.506,0 400.18607,178.68011 400.18607,400.18611 0,221.506 -178.68007,400.18611 -400.18607,400.18611 -221.506,0 -400.55831,-175.88855 -400.55831,-397.39455 0,-221.506 179.05231,-402.97767 400.55831,-402.97767 z"
       stroke-width="100"
       style="opacity:0.8;fill:#ffffff" />
  </g>
</svg>
